<svg width="149" height="34" viewBox="0 0 149 34" fill="none" xmlns="http://www.w3.org/2000/svg">
<mask id="mask0_2934_4209" style="mask-type:luminance" maskUnits="userSpaceOnUse" x="0" y="2" width="32" height="32">
<path d="M0 2.63281H31.3674V34.0002H0V2.63281Z" fill="white"/>
</mask>
<g mask="url(#mask0_2934_4209)">
<mask id="mask1_2934_4209" style="mask-type:luminance" maskUnits="userSpaceOnUse" x="0" y="2" width="32" height="32">
<path d="M15.6837 2.63281C7.02239 2.63281 0 9.65521 0 18.3165C0 26.9778 7.02239 34.0002 15.6837 34.0002C24.345 34.0002 31.3674 26.9778 31.3674 18.3165C31.3674 9.65521 24.345 2.63281 15.6837 2.63281Z" fill="white"/>
</mask>
<g mask="url(#mask1_2934_4209)">
<path d="M15.6837 2.63281C7.02239 2.63281 0 9.65521 0 18.3165C0 26.9778 7.02239 34.0002 15.6837 34.0002C24.345 34.0002 31.3674 26.9778 31.3674 18.3165C31.3674 9.65521 24.345 2.63281 15.6837 2.63281Z" stroke="white" stroke-width="11.9495"/>
</g>
</g>
<mask id="mask2_2934_4209" style="mask-type:luminance" maskUnits="userSpaceOnUse" x="16" y="0" width="19" height="19">
<path d="M16.943 0H34.2221V18.3184H16.943V0Z" fill="white"/>
</mask>
<g mask="url(#mask2_2934_4209)">
<path d="M16.943 0H34.2221V18.2914H16.943V0Z" fill="#161616"/>
</g>
<mask id="mask3_2934_4209" style="mask-type:luminance" maskUnits="userSpaceOnUse" x="16" y="12" width="9" height="7">
<path d="M16.943 12.52H24.9529V18.3184H16.943V12.52Z" fill="white"/>
</mask>
<g mask="url(#mask3_2934_4209)">
<path d="M16.943 12.52H24.9612V18.3184H16.943V12.52Z" fill="white"/>
</g>
<path d="M46.567 26.3999C45.3327 26.3999 44.2145 26.2028 43.2145 25.8107C42.2125 25.4124 41.3578 24.8377 40.6504 24.0846C39.9409 23.3274 39.3932 22.398 39.0073 21.2964C38.6256 20.1969 38.4348 18.9377 38.4348 17.5207C38.4348 16.11 38.6256 14.8549 39.0073 13.7533C39.3932 12.6538 39.9409 11.7244 40.6504 10.9651C41.3578 10.2079 42.2125 9.63325 43.2145 9.23908C44.2145 8.84699 45.3327 8.6499 46.567 8.6499C47.7993 8.6499 48.9175 8.84699 49.9195 9.23908C50.9257 9.63325 51.7804 10.2079 52.4837 10.9651C53.1911 11.7244 53.7388 12.6538 54.1267 13.7533C54.5126 14.8549 54.7076 16.11 54.7076 17.5207C54.7076 18.9377 54.5126 20.1969 54.1267 21.2964C53.7388 22.398 53.1911 23.3274 52.4837 24.0846C51.7804 24.8377 50.9257 25.4124 49.9195 25.8107C48.9175 26.2028 47.7993 26.3999 46.567 26.3999ZM46.567 23.0723C47.2081 23.0723 47.7993 22.9561 48.3429 22.7237C48.8843 22.4914 49.3511 22.147 49.7453 21.6865C50.1436 21.228 50.4527 20.6492 50.6747 19.9521C50.8946 19.2551 51.0066 18.446 51.0066 17.5207C51.0066 16.6038 50.8946 15.7947 50.6747 15.0976C50.4527 14.3964 50.1436 13.8156 49.7453 13.355C49.3511 12.8965 48.8843 12.5542 48.3429 12.326C47.7993 12.0937 47.2081 11.9775 46.567 11.9775C45.9239 11.9775 45.3327 12.0937 44.7912 12.326C44.2477 12.5542 43.7809 12.8965 43.3888 13.355C42.9946 13.8156 42.6855 14.3964 42.4594 15.0976C42.2374 15.7947 42.1275 16.6038 42.1275 17.5207C42.1275 18.446 42.2374 19.2551 42.4594 19.9521C42.6855 20.6492 42.9946 21.228 43.3888 21.6865C43.7809 22.147 44.2477 22.4914 44.7912 22.7237C45.3327 22.9561 45.9239 23.0723 46.567 23.0723Z" fill="white"/>
<path d="M56.5537 13.0815H59.5162L59.8813 14.5669H60.0058C60.431 14.0088 60.9393 13.5835 61.5326 13.2889C62.1239 12.9902 62.7649 12.8408 63.4578 12.8408C64.1652 12.8408 64.8146 12.9611 65.4079 13.1976C65.9992 13.4362 66.5033 13.7847 66.9182 14.2432C67.3373 14.7038 67.6671 15.2598 67.9057 15.9112C68.1422 16.5584 68.2625 17.3011 68.2625 18.1351V26.1512H64.8187V18.633C64.8187 17.7596 64.6113 17.0895 64.1964 16.6248C63.7856 16.156 63.211 15.9195 62.4703 15.9195C61.7339 15.9195 61.1385 16.1726 60.6862 16.6746C60.2319 17.1725 60.0058 17.826 60.0058 18.633V26.1512H56.5537V13.0815Z" fill="white"/>
<path d="M76.2767 31.0804C75.2913 31.0804 74.4448 30.9642 73.7374 30.7318C73.0341 30.5036 72.4387 30.1883 71.9533 29.7858C71.4658 29.3813 71.0737 28.9104 70.7749 28.3751C70.4803 27.8441 70.2625 27.2653 70.1194 26.6408H73.6876C73.8204 27.0723 74.1129 27.4063 74.5672 27.6449C75.0195 27.8814 75.59 28.0017 76.2767 28.0017C77.1501 28.0017 77.8201 27.7943 78.2848 27.3794C78.7537 26.9686 78.9902 26.396 78.9902 25.6616V23.8111H78.8657C78.7371 23.9563 78.5691 24.1244 78.3595 24.3173C78.1541 24.5061 77.9031 24.6824 77.6044 24.8484C77.3098 25.0102 76.9779 25.145 76.6086 25.255C76.2435 25.3608 75.8452 25.4127 75.4137 25.4127C74.5776 25.4127 73.8162 25.2778 73.1316 25.0061C72.4512 24.7364 71.8662 24.3339 71.3807 23.8028C70.8994 23.2676 70.526 22.6079 70.2604 21.8278C69.999 21.0436 69.8704 20.1412 69.8704 19.1226C69.8704 18.1061 69.999 17.2057 70.2604 16.4257C70.526 15.6456 70.8994 14.9901 71.3807 14.459C71.8662 13.9237 72.4512 13.5192 73.1316 13.2474C73.8162 12.9777 74.5776 12.8408 75.4137 12.8408C76.2207 12.8408 76.9239 13.0213 77.5214 13.3802C78.123 13.7412 78.6126 14.1353 78.9902 14.5669H79.1147L79.4881 13.0815H82.4423V25.6616C82.4423 27.4042 81.9402 28.7423 80.9403 29.678C79.9383 30.6115 78.3844 31.0804 76.2767 31.0804ZM76.1605 22.3257C77.0277 22.3257 77.7164 22.0415 78.2268 21.471C78.735 20.8963 78.9902 20.1142 78.9902 19.1226C78.9902 18.1393 78.735 17.3592 78.2268 16.7825C77.7164 16.2078 77.0277 15.9195 76.1605 15.9195C75.285 15.9195 74.5942 16.2078 74.0859 16.7825C73.5756 17.3592 73.3225 18.1393 73.3225 19.1226C73.3225 20.1142 73.5756 20.8963 74.0859 21.471C74.5942 22.0415 75.285 22.3257 76.1605 22.3257Z" fill="white"/>
<path d="M84.7851 13.0811H87.7476L88.1127 14.5664H88.2372C88.6189 14.0084 89.0711 13.6204 89.5981 13.4047C90.1229 13.1889 90.6976 13.0811 91.3241 13.0811H92.9257V16.4087H91.5648C90.513 16.4087 89.6935 16.697 89.1085 17.2717C88.5276 17.8484 88.2372 18.6305 88.2372 19.6201V26.1508H84.7851V13.0811Z" fill="white"/>
<path d="M99.9473 26.4002C98.9618 26.4002 98.0739 26.2466 97.2835 25.9438C96.4973 25.6409 95.8251 25.2011 95.2671 24.6243C94.7069 24.0497 94.2796 23.3443 93.9808 22.5083C93.6862 21.6681 93.541 20.7055 93.541 19.6205C93.541 18.5376 93.6862 17.577 93.9808 16.741C94.2796 15.9008 94.7069 15.1934 95.2671 14.6166C95.8251 14.042 96.4973 13.6022 97.2835 13.2972C98.0739 12.9943 98.9618 12.8408 99.9473 12.8408C100.937 12.8408 101.825 12.9943 102.611 13.2972C103.401 13.6022 104.076 14.042 104.636 14.6166C105.194 15.1934 105.619 15.9008 105.914 16.741C106.212 17.577 106.362 18.5376 106.362 19.6205C106.362 20.7055 106.212 21.6681 105.914 22.5083C105.619 23.3443 105.194 24.0497 104.636 24.6243C104.076 25.2011 103.401 25.6409 102.611 25.9438C101.825 26.2466 100.937 26.4002 99.9473 26.4002ZM99.9473 23.3132C100.346 23.3132 100.723 23.2448 101.084 23.1058C101.443 22.9688 101.758 22.7469 102.03 22.4419C102.306 22.139 102.522 21.7531 102.677 21.2884C102.831 20.8196 102.91 20.2636 102.91 19.6205C102.91 18.9795 102.831 18.4235 102.677 17.9525C102.522 17.4837 102.306 17.0978 102.03 16.7991C101.758 16.4962 101.443 16.2742 101.084 16.1352C100.723 15.9921 100.346 15.9195 99.9473 15.9195C99.5531 15.9195 99.1755 15.9921 98.8104 16.1352C98.4494 16.2742 98.1341 16.4962 97.8644 16.7991C97.5926 17.0978 97.379 17.4837 97.2254 17.9525C97.0698 18.4235 96.9931 18.9795 96.9931 19.6205C96.9931 20.2636 97.0698 20.8196 97.2254 21.2884C97.379 21.7531 97.5926 22.139 97.8644 22.4419C98.1341 22.7469 98.4494 22.9688 98.8104 23.1058C99.1755 23.2448 99.5531 23.3132 99.9473 23.3132Z" fill="white"/>
<path d="M112.898 26.3997C112.189 26.3997 111.539 26.2794 110.948 26.0429C110.355 25.8064 109.849 25.4579 109.43 24.9973C109.008 24.5326 108.679 23.9767 108.442 23.3294C108.203 22.678 108.085 21.9332 108.085 21.0972V13.0811H111.537V20.6076C111.537 21.4768 111.741 22.1469 112.151 22.6157C112.566 23.0804 113.141 23.3128 113.877 23.3128C114.618 23.3128 115.215 23.0638 115.67 22.566C116.122 22.0639 116.35 21.4104 116.35 20.6076V13.0811H119.794V26.1508H116.84L116.466 24.6737H116.35C115.919 25.2338 115.406 25.6612 114.815 25.9599C114.222 26.2524 113.583 26.3997 112.898 26.3997Z" fill="white"/>
<path d="M122.139 13.0815H125.102L125.467 14.5669H125.591C126.017 14.0088 126.525 13.5835 127.118 13.2889C127.709 12.9902 128.351 12.8408 129.043 12.8408C129.751 12.8408 130.4 12.9611 130.994 13.1976C131.585 13.4362 132.089 13.7847 132.504 14.2432C132.923 14.7038 133.253 15.2598 133.491 15.9112C133.728 16.5584 133.848 17.3011 133.848 18.1351V26.1512H130.404V18.633C130.404 17.7596 130.197 17.0895 129.782 16.6248C129.371 16.156 128.797 15.9195 128.056 15.9195C127.319 15.9195 126.724 16.1726 126.272 16.6746C125.817 17.1725 125.591 17.826 125.591 18.633V26.1512H122.139V13.0815Z" fill="white"/>
<path d="M141.124 26.3999C140.288 26.3999 139.524 26.2547 138.833 25.9684C138.14 25.6821 137.543 25.2506 137.041 24.6739C136.543 24.0992 136.153 23.3939 135.871 22.5578C135.593 21.7176 135.456 20.7385 135.456 19.6203C135.456 18.5207 135.593 17.5457 135.871 16.6993C136.153 15.8529 136.543 15.1434 137.041 14.5666C137.543 13.992 138.14 13.5605 138.833 13.2721C139.524 12.9858 140.288 12.8406 141.124 12.8406C141.615 12.8406 142.055 12.8945 142.443 12.9983C142.829 13.1041 143.169 13.2389 143.464 13.4049C143.763 13.5708 144.007 13.7492 144.202 13.936C144.402 14.1247 144.567 14.2928 144.7 14.4422H144.825V8.89062H148.277V26.151H145.314L144.949 24.6739H144.825C144.642 24.8855 144.431 25.095 144.194 25.3046C143.955 25.5099 143.688 25.6946 143.389 25.8605C143.095 26.0224 142.761 26.151 142.385 26.2506C142.007 26.3501 141.588 26.3999 141.124 26.3999ZM141.862 23.313C142.261 23.313 142.638 23.2445 142.999 23.1055C143.358 22.9686 143.673 22.7466 143.945 22.4417C144.221 22.1388 144.437 21.7529 144.592 21.2882C144.746 20.8194 144.825 20.2634 144.825 19.6203C144.825 18.9792 144.746 18.4232 144.592 17.9523C144.437 17.4835 144.221 17.0976 143.945 16.7989C143.673 16.496 143.358 16.274 142.999 16.135C142.638 15.9919 142.261 15.9192 141.862 15.9192C141.468 15.9192 141.091 15.9919 140.725 16.135C140.364 16.274 140.049 16.496 139.779 16.7989C139.508 17.0976 139.294 17.4835 139.14 17.9523C138.985 18.4232 138.908 18.9792 138.908 19.6203C138.908 20.2634 138.985 20.8194 139.14 21.2882C139.294 21.7529 139.508 22.1388 139.779 22.4417C140.049 22.7466 140.364 22.9686 140.725 23.1055C141.091 23.2445 141.468 23.313 141.862 23.313Z" fill="white"/>
</svg>
